<svg xmlns="http://www.w3.org/2000/svg" fill="currentColor" viewBox="0 0 30 30"><path d="m14.47 18.6 4.14-4.13a4.4 4.4 0 0 1 3.81-1.27 6.7 6.7 0 0 0 5.95-2.2 6.7 6.7 0 0 0 1.2-6.7l-2.91 2.92a1 1 0 0 1-1.43 0l-2.44-2.44a1 1 0 0 1-.3-.71 1 1 0 0 1 .3-.72L25.71.43a6.63 6.63 0 0 0-8.91 7.15 4.4 4.4 0 0 1-1.27 3.81l-4.14 4.14a4.4 4.4 0 0 1-3.81 1.27 6.64 6.64 0 0 0-7.15 8.9l2.91-2.91q.3-.3.72-.3.41 0 .71.3l2.44 2.44c.4.4.4 1.03 0 1.43l-2.92 2.91a6.63 6.63 0 0 0 8.91-7.15 4.4 4.4 0 0 1 1.27-3.81m-1.4 7.97.03.1.08.24c.12.36.45.6.84.6h1.96c.38 0 .72-.24.84-.6l.08-.25c.23-.73.8-1.31 1.53-1.55a11 11 0 0 0 1.3-.54 2.4 2.4 0 0 1 2.17.02l.23.11c.34.18.76.12 1.02-.16l1.4-1.39a.9.9 0 0 0 .16-1.02l-.12-.23a2.4 2.4 0 0 1-.01-2.18 10 10 0 0 0 .53-1.29c.24-.73.82-1.3 1.55-1.53l.25-.08a.9.9 0 0 0 .6-.84v-1.96a.9.9 0 0 0-.6-.84l-.25-.08-.09-.03q-.45.23-.93.38a7 7 0 0 1-2.95.34 7 7 0 0 1 .1 1.2 7.8 7.8 0 0 1-9 7.7 7 7 0 0 1-.72 3.88m-9.64-9.64q.45-.23.93-.38a7 7 0 0 1 2.95-.34l-.06-.41-.04-.8a7.8 7.8 0 0 1 9-7.7 7 7 0 0 1 .72-3.87l-.03-.1-.08-.24a.9.9 0 0 0-.84-.6h-1.96a.9.9 0 0 0-.84.6l-.08.25c-.23.73-.8 1.31-1.53 1.55a11 11 0 0 0-1.3.53c-.68.36-1.5.35-2.17 0l-.23-.12a.9.9 0 0 0-1.02.16l-1.4 1.39a.9.9 0 0 0-.16 1.02l.12.23a2.4 2.4 0 0 1 .01 2.18 10 10 0 0 0-.53 1.29c-.24.73-.82 1.3-1.55 1.53l-.25.08a.9.9 0 0 0-.6.84v1.96c-.01.38.24.72.6.84l.25.08z"/></svg>
